<svg xmlns="http://www.w3.org/2000/svg" version="1.1" xmlns:xlink="http://www.w3.org/1999/xlink" xmlns:svgjs="http://svgjs.dev/svgjs" width="2000" height="1247" viewBox="0 0 2000 1247"><g transform="matrix(1,0,0,1,-1.2121212121212466,0.504858299595071)"><svg viewBox="0 0 396 247" data-background-color="#ffffff" preserveAspectRatio="xMidYMid meet" height="1247" width="2000" xmlns="http://www.w3.org/2000/svg" xmlns:xlink="http://www.w3.org/1999/xlink"><g id="tight-bounds" transform="matrix(1,0,0,1,0.2400000000000091,-0.09999999999999432)"><svg viewBox="0 0 395.52 247.2" height="247.2" width="395.52"><g><svg></svg></g><g><svg viewBox="0 0 395.52 247.2" height="247.2" width="395.52"><g transform="matrix(1,0,0,1,75.54432,80.24625933972914)"><svg viewBox="0 0 244.43135999999998 86.7074813205417" height="86.7074813205417" width="244.43135999999998"><g><svg viewBox="0 0 244.43135999999998 86.7074813205417" height="86.7074813205417" width="244.43135999999998"><g><svg viewBox="0 0 244.43136 86.70748132054172" height="86.7074813205417" width="244.43135999999998"><g><svg viewBox="0 0 244.43136 86.70748132054172" height="86.70748132054172" width="244.43136"><g id="textblocktransform"><svg viewBox="0 0 244.43136 86.70748132054172" height="86.70748132054172" width="244.43136" id="textblock"><g><svg viewBox="0 0 244.43136 46.76587222990952" height="46.76587222990952" width="244.43136"><g transform="matrix(1,0,0,1,0,0)"><svg width="244.43136" viewBox="4 -35.349998474121094 187.8800048828125 35.94999694824219" height="46.76587222990952" data-palette-color="#000000"><path d="M13.85 0L13.85 0 4 0 4-33.7 13.6-33.7Q21-33.7 25.75-29.1 30.5-24.5 30.5-17.05L30.5-17.05Q30.5-12.5 28.75-8.72 27-4.95 23.13-2.48 19.25 0 13.85 0ZM13.6-30.85L13.6-30.85 7.1-30.85 7.1-2.85 13.85-2.85Q17.3-2.85 19.95-4.05 22.6-5.25 24.15-7.3 25.7-9.35 26.48-11.8 27.25-14.25 27.25-17.05L27.25-17.05Q27.25-22.8 23.43-26.83 19.6-30.85 13.6-30.85ZM43.9-2.55L43.9-2.55Q46.9-2.55 48.7-4.2 50.5-5.85 50.5-8.4L50.5-8.4 50.5-12.05 45.55-12.05Q42-12.05 40.25-10.68 38.5-9.3 38.5-7.25L38.5-7.25Q38.5-5.15 39.87-3.85 41.25-2.55 43.9-2.55ZM50.5 0L50.5-2.95Q48.4 0.25 43.2 0.25L43.2 0.25Q39.7 0.25 37.47-1.83 35.25-3.9 35.25-7.15L35.25-7.15Q35.25-10.8 38.07-12.83 40.9-14.85 45.55-14.85L45.55-14.85 50.5-14.85 50.5-16Q50.5-19.4 49.05-21.13 47.6-22.85 44.2-22.85L44.2-22.85Q40.25-22.85 37.1-20.7L37.1-20.7 37.1-24Q40-25.75 44.25-25.75L44.25-25.75Q53.55-25.75 53.55-16L53.55-16 53.55 0 50.5 0ZM73-3.8L73-0.7Q71.55 0.25 69.65 0.25L69.65 0.25Q62.45 0.25 62.45-7.15L62.45-7.15 62.45-22.75 58.3-22.75 58.3-25.35 62.45-25.35 62.45-31.7 65.55-31.7 65.55-25.35 72.8-25.35 72.8-22.75 65.55-22.75 65.55-7Q65.55-2.65 69.59-2.65L69.59-2.65Q71.59-2.65 73-3.8L73-3.8ZM97.19-4.35L97.19-1.25Q94.19 0.25 90.19 0.25L90.19 0.25Q84.54 0.25 81.02-3.28 77.49-6.8 77.49-12.55L77.49-12.55Q77.49-18.65 80.59-22.15 83.69-25.65 88.64-25.65L88.64-25.65Q93.29-25.65 96.04-22.6 98.79-19.55 98.79-14L98.79-14Q98.79-12.3 98.59-11.3L98.59-11.3 80.69-11.3Q81.04-7.1 83.59-4.88 86.14-2.65 90.34-2.65L90.34-2.65Q94.64-2.65 97.19-4.35L97.19-4.35ZM88.54-22.8L88.54-22.8Q85.34-22.8 83.19-20.55 81.04-18.3 80.69-14.1L80.69-14.1 95.64-14.1 95.64-15.25Q95.64-18.7 93.72-20.75 91.79-22.8 88.54-22.8ZM117.14-3.8L117.14-0.7Q115.69 0.25 113.79 0.25L113.79 0.25Q106.59 0.25 106.59-7.15L106.59-7.15 106.59-22.75 102.44-22.75 102.44-25.35 106.59-25.35 106.59-31.7 109.69-31.7 109.69-25.35 116.94-25.35 116.94-22.75 109.69-22.75 109.69-7Q109.69-2.65 113.74-2.65L113.74-2.65Q115.74-2.65 117.14-3.8L117.14-3.8ZM141.34-4.35L141.34-1.25Q138.34 0.25 134.34 0.25L134.34 0.25Q128.69 0.25 125.16-3.28 121.64-6.8 121.64-12.55L121.64-12.55Q121.64-18.65 124.74-22.15 127.84-25.65 132.79-25.65L132.79-25.65Q137.44-25.65 140.19-22.6 142.94-19.55 142.94-14L142.94-14Q142.94-12.3 142.74-11.3L142.74-11.3 124.84-11.3Q125.19-7.1 127.74-4.88 130.29-2.65 134.49-2.65L134.49-2.65Q138.79-2.65 141.34-4.35L141.34-4.35ZM132.69-22.8L132.69-22.8Q129.49-22.8 127.34-20.55 125.19-18.3 124.84-14.1L124.84-14.1 139.79-14.1 139.79-15.25Q139.79-18.7 137.86-20.75 135.94-22.8 132.69-22.8ZM166.19-3.95L166.19-0.85Q164.04 0.6 160.64 0.6L160.64 0.6Q154.49 0.6 151.04-3.28 147.59-7.15 147.59-12.6L147.59-12.6Q147.59-17.9 151.11-21.85 154.64-25.8 160.64-25.8L160.64-25.8Q163.74-25.8 166.19-24.45L166.19-24.45 166.19-21.35Q163.94-22.85 160.94-22.85L160.94-22.85Q156.29-22.85 153.54-19.83 150.79-16.8 150.79-12.55L150.79-12.55Q150.79-8.25 153.44-5.3 156.09-2.35 160.99-2.35L160.99-2.35Q164.04-2.35 166.19-3.95L166.19-3.95ZM191.88-17.7L191.88 0 188.83 0 188.83-16.75Q188.83-19.7 187.33-21.25 185.83-22.8 183.38-22.8L183.38-22.8Q180.28-22.8 178.03-20.43 175.78-18.05 175.78-14L175.78-14 175.78 0 172.73 0 172.73-35.35 175.78-35.35 175.78-21Q178.08-25.75 183.83-25.75L183.83-25.75Q187.48-25.75 189.68-23.5 191.88-21.25 191.88-17.7L191.88-17.7Z" opacity="1" transform="matrix(1,0,0,1,0,0)" fill="#000000" class="undefined-text-0" data-fill-palette-color="primary" id="text-0"></path></svg></g></svg></g><g transform="matrix(1,0,0,1,0,57.80617228245764)"><svg viewBox="0 0 244.43136 28.901309038084083" height="28.901309038084083" width="244.43136"><g transform="matrix(1,0,0,1,0,0)"><svg width="244.43136" viewBox="2.0999999046325684 -36.20000076293945 312.3699951171875 36.79999923706055" height="28.901309038084083" data-palette-color="#89939e"><path d="M13.6 0.6L13.6 0.6Q10.15 0.6 7.2-0.7 4.25-2 2.1-4.25L2.1-4.25 4.6-7.15Q6.35-5.3 8.72-4.17 11.1-3.05 13.65-3.05L13.65-3.05Q16.9-3.05 18.7-4.53 20.5-6 20.5-8.4L20.5-8.4Q20.5-9.65 20.08-10.53 19.65-11.4 18.93-12.03 18.2-12.65 17.2-13.15 16.2-13.65 15.05-14.2L15.05-14.2 10.35-16.25Q9.2-16.75 8-17.45 6.8-18.15 5.85-19.15 4.9-20.15 4.3-21.53 3.7-22.9 3.7-24.7L3.7-24.7Q3.7-26.55 4.48-28.15 5.25-29.75 6.63-30.93 8-32.1 9.88-32.75 11.75-33.4 14-33.4L14-33.4Q16.95-33.4 19.45-32.27 21.95-31.15 23.7-29.35L23.7-29.35 21.45-26.65Q19.95-28.1 18.13-28.93 16.3-29.75 14-29.75L14-29.75Q11.25-29.75 9.58-28.48 7.9-27.2 7.9-24.95L7.9-24.95Q7.9-23.75 8.38-22.93 8.85-22.1 9.65-21.48 10.45-20.85 11.4-20.38 12.35-19.9 13.35-19.5L13.35-19.5 18-17.5Q19.4-16.9 20.65-16.13 21.9-15.35 22.8-14.33 23.7-13.3 24.23-11.93 24.75-10.55 24.75-8.75L24.75-8.75Q24.75-6.8 23.98-5.1 23.2-3.4 21.75-2.13 20.3-0.85 18.25-0.13 16.2 0.6 13.6 0.6ZM58.65 0.6L58.65 0.6Q56.4 0.6 54.38-0.25 52.35-1.1 50.8-2.73 49.25-4.35 48.33-6.73 47.4-9.1 47.4-12.1L47.4-12.1Q47.4-15.15 48.33-17.53 49.25-19.9 50.8-21.55 52.35-23.2 54.38-24.05 56.4-24.9 58.65-24.9L58.65-24.9Q60.9-24.9 62.93-24.05 64.95-23.2 66.5-21.55 68.05-19.9 68.98-17.53 69.9-15.15 69.9-12.1L69.9-12.1Q69.9-9.1 68.98-6.73 68.05-4.35 66.5-2.73 64.95-1.1 62.93-0.25 60.9 0.6 58.65 0.6ZM58.65-2.8L58.65-2.8Q60.2-2.8 61.5-3.48 62.8-4.15 63.73-5.38 64.65-6.6 65.15-8.3 65.65-10 65.65-12.1L65.65-12.1Q65.65-14.2 65.15-15.93 64.65-17.65 63.73-18.9 62.8-20.15 61.5-20.83 60.2-21.5 58.65-21.5L58.65-21.5Q57.1-21.5 55.8-20.83 54.5-20.15 53.58-18.9 52.65-17.65 52.15-15.93 51.65-14.2 51.65-12.1L51.65-12.1Q51.65-10 52.15-8.3 52.65-6.6 53.58-5.38 54.5-4.15 55.8-3.48 57.1-2.8 58.65-2.8ZM99.51 0L95.41 0 95.41-20.95 92.11-20.95 92.11-24.05 95.41-24.3 95.41-28.15Q95.41-31.9 97.13-34.05 98.86-36.2 102.51-36.2L102.51-36.2Q103.66-36.2 104.68-35.98 105.71-35.75 106.56-35.4L106.56-35.4 105.66-32.25Q104.31-32.85 102.91-32.85L102.91-32.85Q99.51-32.85 99.51-28.15L99.51-28.15 99.51-24.3 104.66-24.3 104.66-20.95 99.51-20.95 99.51 0ZM135.36 0.6L135.36 0.6Q133.41 0.6 132.08 0 130.76-0.6 129.93-1.65 129.11-2.7 128.76-4.2 128.41-5.7 128.41-7.5L128.41-7.5 128.41-20.95 124.81-20.95 124.81-24.05 128.61-24.3 129.11-31.1 132.56-31.1 132.56-24.3 139.11-24.3 139.11-20.95 132.56-20.95 132.56-7.45Q132.56-5.2 133.38-3.98 134.21-2.75 136.31-2.75L136.31-2.75Q136.96-2.75 137.71-2.95 138.46-3.15 139.06-3.4L139.06-3.4 139.86-0.3Q138.86 0.05 137.68 0.33 136.51 0.6 135.36 0.6ZM171.66 0L166.86 0 160.11-24.3 164.31-24.3 167.91-10.25Q168.31-8.5 168.66-6.85 169.01-5.2 169.36-3.5L169.36-3.5 169.56-3.5Q169.96-5.2 170.36-6.88 170.76-8.55 171.21-10.25L171.21-10.25 174.96-24.3 178.96-24.3 182.76-10.25Q183.21-8.5 183.64-6.85 184.06-5.2 184.46-3.5L184.46-3.5 184.66-3.5Q185.06-5.2 185.41-6.85 185.76-8.5 186.16-10.25L186.16-10.25 189.71-24.3 193.61-24.3 187.11 0 182.11 0 178.61-13.05Q178.16-14.8 177.79-16.5 177.41-18.2 176.96-20.05L176.96-20.05 176.76-20.05Q176.36-18.2 175.96-16.48 175.56-14.75 175.06-13L175.06-13 171.66 0ZM222.42 0.6L222.42 0.6Q219.37 0.6 217.34-1.2 215.32-3 215.32-6.3L215.32-6.3Q215.32-10.3 218.87-12.43 222.42-14.55 230.22-15.4L230.22-15.4Q230.22-16.55 229.99-17.65 229.77-18.75 229.22-19.6 228.67-20.45 227.69-20.98 226.72-21.5 225.22-21.5L225.22-21.5Q223.12-21.5 221.27-20.7 219.42-19.9 217.97-18.9L217.97-18.9 216.37-21.75Q218.07-22.85 220.52-23.88 222.97-24.9 225.92-24.9L225.92-24.9Q230.37-24.9 232.37-22.18 234.37-19.45 234.37-14.9L234.37-14.9 234.37 0 230.97 0 230.62-2.9 230.47-2.9Q228.72-1.45 226.72-0.43 224.72 0.6 222.42 0.6ZM223.62-2.7L223.62-2.7Q225.37-2.7 226.92-3.53 228.47-4.35 230.22-5.95L230.22-5.95 230.22-12.7Q227.17-12.3 225.09-11.75 223.02-11.2 221.74-10.45 220.47-9.7 219.89-8.72 219.32-7.75 219.32-6.6L219.32-6.6Q219.32-4.5 220.57-3.6 221.82-2.7 223.62-2.7ZM264.52 0L260.42 0 260.42-24.3 263.82-24.3 264.17-19.9 264.32-19.9Q265.57-22.2 267.34-23.55 269.12-24.9 271.22-24.9L271.22-24.9Q272.67-24.9 273.82-24.4L273.82-24.4 273.02-20.8Q272.42-21 271.92-21.1 271.42-21.2 270.67-21.2L270.67-21.2Q269.12-21.2 267.44-19.95 265.77-18.7 264.52-15.6L264.52-15.6 264.52 0ZM305.52 0.6L305.52 0.6Q303.07 0.6 300.95-0.28 298.82-1.15 297.25-2.78 295.67-4.4 294.77-6.75 293.87-9.1 293.87-12.1L293.87-12.1Q293.87-15.1 294.8-17.48 295.72-19.85 297.25-21.5 298.77-23.15 300.72-24.03 302.67-24.9 304.77-24.9L304.77-24.9Q307.07-24.9 308.9-24.1 310.72-23.3 311.95-21.8 313.17-20.3 313.82-18.2 314.47-16.1 314.47-13.5L314.47-13.5Q314.47-12.85 314.45-12.23 314.42-11.6 314.32-11.15L314.32-11.15 297.92-11.15Q298.17-7.25 300.35-4.98 302.52-2.7 306.02-2.7L306.02-2.7Q307.77-2.7 309.25-3.23 310.72-3.75 312.07-4.6L312.07-4.6 313.52-1.9Q311.92-0.9 309.97-0.15 308.02 0.6 305.52 0.6ZM297.87-14.1L297.87-14.1 310.87-14.1Q310.87-17.8 309.3-19.73 307.72-21.65 304.87-21.65L304.87-21.65Q303.57-21.65 302.4-21.15 301.22-20.65 300.27-19.68 299.32-18.7 298.7-17.3 298.07-15.9 297.87-14.1Z" opacity="1" transform="matrix(1,0,0,1,0,0)" fill="#000000" class="undefined-text-1" data-fill-palette-color="secondary" id="text-1"></path></svg></g></svg></g></svg></g></svg></g></svg></g></svg></g></svg></g><path d="M173.58 74.246L173.58 13.137 394.506 13.137 394.506 234.063 173.58 234.063 173.58 172.954 177.797 172.954 177.797 229.846 390.289 229.846 390.289 17.354 177.797 17.354 177.797 74.246Z" fill="#000000" stroke="transparent" data-fill-palette-color="primary"></path></svg></g><defs></defs></svg><rect width="395.52" height="247.2" fill="none" stroke="none" visibility="hidden"></rect></g></svg></g></svg>